<mxfile host="app.diagrams.net" modified="2024-02-09T19:01:02.551Z" agent="Mozilla/5.0 (X11; Linux x86_64) AppleWebKit/537.36 (KHTML, like Gecko) Chrome/121.0.0.0 Safari/537.36" etag="2KryBNy9eoNXLY2BcBxy" version="23.1.2" type="device">
  <diagram name="Page-1" id="gZ0JkJsrRNYWMLLHbI5_">
    <mxGraphModel dx="994" dy="1678" grid="1" gridSize="10" guides="1" tooltips="1" connect="1" arrows="1" fold="1" page="1" pageScale="1" pageWidth="850" pageHeight="1100" math="0" shadow="0">
      <root>
        <mxCell id="0" />
        <mxCell id="1" parent="0" />
        <mxCell id="2_KHZOJ8DBUEH01xGZ7C-6" value="" style="rounded=0;whiteSpace=wrap;html=1;fillColor=#fff2cc;strokeColor=#d6b656;movable=1;resizable=1;rotatable=1;deletable=1;editable=1;locked=0;connectable=1;" parent="1" vertex="1">
          <mxGeometry x="110" y="-500" width="680" height="240" as="geometry" />
        </mxCell>
        <mxCell id="c17cPs4ODMmT4z2fLXIL-7" style="edgeStyle=orthogonalEdgeStyle;rounded=0;orthogonalLoop=1;jettySize=auto;html=1;exitX=1;exitY=0.5;exitDx=0;exitDy=0;entryX=0;entryY=0.5;entryDx=0;entryDy=0;" parent="1" source="2_KHZOJ8DBUEH01xGZ7C-1" target="c17cPs4ODMmT4z2fLXIL-5" edge="1">
          <mxGeometry relative="1" as="geometry" />
        </mxCell>
        <mxCell id="2_KHZOJ8DBUEH01xGZ7C-1" value="Nyaya Drishti&amp;nbsp;&lt;br&gt;Extension" style="rounded=1;whiteSpace=wrap;html=1;arcSize=0;" parent="1" vertex="1">
          <mxGeometry x="230" y="-415.55" width="160" height="63.7" as="geometry" />
        </mxCell>
        <mxCell id="6NxGsOFJBlyZOmLDARHa-10" style="edgeStyle=orthogonalEdgeStyle;rounded=0;orthogonalLoop=1;jettySize=auto;html=1;entryX=0;entryY=0.5;entryDx=0;entryDy=0;exitX=1;exitY=0.5;exitDx=0;exitDy=0;exitPerimeter=0;" parent="1" source="c17cPs4ODMmT4z2fLXIL-1" target="2_KHZOJ8DBUEH01xGZ7C-1" edge="1">
          <mxGeometry relative="1" as="geometry">
            <mxPoint x="270" y="-383.70000000000005" as="targetPoint" />
            <mxPoint x="194.51" y="-383.5999999999999" as="sourcePoint" />
          </mxGeometry>
        </mxCell>
        <mxCell id="6NxGsOFJBlyZOmLDARHa-56" value="" style="rounded=0;orthogonalLoop=1;jettySize=auto;html=1;exitX=1;exitY=0.25;exitDx=0;exitDy=0;entryX=0.07;entryY=0.947;entryDx=0;entryDy=0;entryPerimeter=0;" parent="1" source="c17cPs4ODMmT4z2fLXIL-5" edge="1" target="c17cPs4ODMmT4z2fLXIL-13">
          <mxGeometry relative="1" as="geometry">
            <mxPoint x="630" y="-383.70000000000005" as="sourcePoint" />
            <mxPoint x="650" y="-452.4000000000001" as="targetPoint" />
          </mxGeometry>
        </mxCell>
        <mxCell id="c17cPs4ODMmT4z2fLXIL-1" value="HTML" style="whiteSpace=wrap;html=1;shape=mxgraph.basic.document" parent="1" vertex="1">
          <mxGeometry x="120" y="-431.2" width="70" height="96.2" as="geometry" />
        </mxCell>
        <mxCell id="c17cPs4ODMmT4z2fLXIL-4" value="" style="shape=image;html=1;verticalAlign=top;verticalLabelPosition=bottom;labelBackgroundColor=#ffffff;imageAspect=0;aspect=fixed;image=https://cdn1.iconfinder.com/data/icons/material-core/23/extension-128.png" parent="1" vertex="1">
          <mxGeometry x="240" y="-395.55" width="23.7" height="23.7" as="geometry" />
        </mxCell>
        <mxCell id="c17cPs4ODMmT4z2fLXIL-5" value="&lt;font style=&quot;font-size: 14px;&quot;&gt;Dark Pattern Classifier&lt;/font&gt;" style="rounded=0;whiteSpace=wrap;html=1;" parent="1" vertex="1">
          <mxGeometry x="425" y="-428.7" width="155" height="90" as="geometry" />
        </mxCell>
        <mxCell id="c17cPs4ODMmT4z2fLXIL-11" value="" style="rounded=0;orthogonalLoop=1;jettySize=auto;html=1;exitX=1;exitY=0.75;exitDx=0;exitDy=0;strokeColor=default;" parent="1" source="c17cPs4ODMmT4z2fLXIL-5" edge="1" target="Hwc7bZdJeDDMIHLWgQYn-2">
          <mxGeometry relative="1" as="geometry">
            <mxPoint x="590" y="-353.05000000000007" as="sourcePoint" />
            <mxPoint x="660" y="-350" as="targetPoint" />
          </mxGeometry>
        </mxCell>
        <mxCell id="c17cPs4ODMmT4z2fLXIL-13" value="Nyaya Score on probable dark pattern" style="whiteSpace=wrap;html=1;verticalAlign=top;rounded=1;glass=0;shadow=0;arcSize=26;" parent="1" vertex="1">
          <mxGeometry x="640" y="-477.5" width="130" height="48.8" as="geometry" />
        </mxCell>
        <mxCell id="c17cPs4ODMmT4z2fLXIL-15" style="rounded=0;orthogonalLoop=1;jettySize=auto;html=1;exitX=1;exitY=0.5;exitDx=0;exitDy=0;entryX=0.017;entryY=0.615;entryDx=0;entryDy=0;entryPerimeter=0;" parent="1" source="c17cPs4ODMmT4z2fLXIL-5" edge="1" target="Hwc7bZdJeDDMIHLWgQYn-1">
          <mxGeometry relative="1" as="geometry">
            <mxPoint x="650" y="-384" as="targetPoint" />
          </mxGeometry>
        </mxCell>
        <mxCell id="Hwc7bZdJeDDMIHLWgQYn-1" value="Notify users Customized Model" style="whiteSpace=wrap;html=1;verticalAlign=top;rounded=1;glass=0;shadow=0;arcSize=26;" vertex="1" parent="1">
          <mxGeometry x="650" y="-404.9" width="120" height="42.4" as="geometry" />
        </mxCell>
        <mxCell id="Hwc7bZdJeDDMIHLWgQYn-2" value="Previously reported dark patterns" style="whiteSpace=wrap;html=1;verticalAlign=top;rounded=1;glass=0;shadow=0;arcSize=26;" vertex="1" parent="1">
          <mxGeometry x="650" y="-338.7" width="120" height="48.7" as="geometry" />
        </mxCell>
      </root>
    </mxGraphModel>
  </diagram>
</mxfile>
